<?xml version="1.0" encoding="UTF-8"?><svg id="a" xmlns="http://www.w3.org/2000/svg" viewBox="0 0 119.3 119.29"><defs><style>.b{fill:#fff;}.c{fill:#70bf44;}</style></defs><path class="c" d="M0,0H69.18c27.66,0,50.12,22.46,50.12,50.12V119.29H50.12C22.46,119.29,0,96.84,0,69.18V0H0Z"/><path class="b" d="M101.65,55.44v10.42c0,4.36-3.53,7.89-7.89,7.89h-20v20.01c0,4.35-3.53,7.88-7.89,7.88h-10.43c-4.36,0-7.89-3.53-7.89-7.88v-20.01H27.54c-4.36,0-7.89-3.53-7.89-7.89v-10.42c0-4.36,3.53-7.89,7.89-7.89h20V27.54c0-4.36,3.53-7.89,7.89-7.89h10.43c4.36,0,7.89,3.53,7.89,7.89v20.01h20c4.36,0,7.89,3.53,7.89,7.89h.01Z"/></svg>